<svg width="195" height="87" viewBox="0 0 195 87" fill="none" xmlns="http://www.w3.org/2000/svg">
<rect x="0.0934601" width="194.907" height="87" rx="5" fill="#FF7A00"/>
<path d="M59.4748 30.334C59.4748 33.6674 57.9014 35.334 54.7548 35.334C53.1814 35.334 51.6348 34.974 50.1148 34.254L48.8748 41.254H55.9948C55.9948 42.6674 55.6481 43.774 54.9548 44.574C54.2614 45.3474 53.2348 45.734 51.8748 45.734C51.0748 45.734 50.2881 45.614 49.5148 45.374C48.7414 45.134 48.2881 44.9474 48.1548 44.814L46.8348 51.934H50.3948C52.1814 51.934 53.5014 51.8007 54.3548 51.534C54.5414 51.774 54.6748 52.1074 54.7548 52.534C54.8614 52.9607 54.9148 53.3607 54.9148 53.734C54.9148 55.734 53.2614 56.734 49.9548 56.734H37.3548L42.2748 30.334H59.4748ZM77.7985 50.774C77.6652 51.494 77.5985 52.054 77.5985 52.454C77.5985 53.014 77.7585 53.494 78.0785 53.894C78.3985 54.294 78.8652 54.5207 79.4785 54.574C79.1852 55.534 78.5452 56.2674 77.5585 56.774C76.5719 57.2807 75.5185 57.534 74.3985 57.534C73.4652 57.534 72.6252 57.334 71.8785 56.934C71.1585 56.5607 70.6652 56.0007 70.3985 55.254C69.7319 55.974 68.8519 56.534 67.7585 56.934C66.6919 57.334 65.5185 57.534 64.2385 57.534C61.9719 57.534 60.3319 56.8674 59.3185 55.534C58.3319 54.2007 57.8385 52.2407 57.8385 49.654C57.8385 46.9607 58.3319 44.5474 59.3185 42.414C60.3052 40.2807 61.7319 38.6007 63.5985 37.374C65.4919 36.1474 67.7452 35.534 70.3585 35.534C71.3452 35.534 72.1985 35.6274 72.9185 35.814L74.1985 28.734L82.1185 27.934L77.7985 50.774ZM72.2785 38.654C72.0119 38.414 71.6785 38.2407 71.2785 38.134C70.8785 38.0007 70.5052 37.934 70.1585 37.934C69.4385 37.934 68.8119 38.214 68.2785 38.774C67.7719 39.334 67.3185 40.2807 66.9185 41.614C66.5185 42.9207 66.1452 44.734 65.7985 47.054C65.4785 49.2407 65.3185 51.0407 65.3185 52.454C65.3185 53.2807 65.4119 53.9074 65.5985 54.334C65.8119 54.7607 66.2252 54.974 66.8385 54.974C67.7985 54.974 68.5452 54.4807 69.0785 53.494C69.6385 52.4807 70.0385 51.3074 70.2785 49.974L72.2785 38.654ZM102.144 50.774C102.011 51.494 101.944 52.054 101.944 52.454C101.944 53.014 102.104 53.494 102.424 53.894C102.744 54.294 103.211 54.5207 103.824 54.574C103.531 55.534 102.891 56.2674 101.904 56.774C100.917 57.2807 99.8638 57.534 98.7438 57.534C97.8105 57.534 96.9705 57.334 96.2238 56.934C95.5038 56.5607 95.0105 56.0007 94.7438 55.254C93.2505 56.774 91.1038 57.534 88.3038 57.534C86.3838 57.534 84.8905 57.1607 83.8238 56.414C82.7838 55.6407 82.2638 54.3474 82.2638 52.534C82.2638 51.4407 82.4105 50.0674 82.7038 48.414C82.9972 46.7607 83.1705 45.8007 83.2238 45.534L84.9038 36.334L92.9438 35.534L90.6638 46.574C90.3438 48.0674 90.1038 49.3074 89.9438 50.294C89.8105 51.254 89.7438 52.1207 89.7438 52.894C89.7438 53.534 89.8372 54.0407 90.0238 54.414C90.2105 54.7874 90.5972 54.974 91.1838 54.974C92.1438 54.974 92.8905 54.4807 93.4238 53.494C93.9838 52.4807 94.3838 51.3074 94.6238 49.974L97.0238 36.334L105.024 35.534L102.144 50.774ZM128.159 30.334C128.159 32.0674 127.799 33.374 127.079 34.254C126.386 35.1074 125.212 35.534 123.559 35.534C122.679 35.534 121.732 35.4274 120.719 35.214C119.706 35.0007 118.892 34.7474 118.279 34.454L117.079 40.934H124.799C124.799 42.4007 124.452 43.574 123.759 44.454C123.066 45.3074 121.959 45.734 120.439 45.734C119.666 45.734 118.906 45.6274 118.159 45.414C117.412 45.2007 116.799 44.9874 116.319 44.774L114.199 56.734H105.519L110.439 30.334H128.159ZM134.749 50.774C134.616 51.494 134.549 52.054 134.549 52.454C134.549 53.014 134.709 53.494 135.029 53.894C135.349 54.294 135.816 54.5207 136.429 54.574C136.136 55.534 135.496 56.2674 134.509 56.774C133.523 57.2807 132.443 57.534 131.269 57.534C129.883 57.534 128.763 57.1874 127.909 56.494C127.083 55.774 126.669 54.7474 126.669 53.414C126.669 52.1074 127.109 49.294 127.989 44.974L128.149 44.174L131.069 28.734L139.149 27.934L134.749 50.774ZM140.457 61.214C140.457 59.1607 141.83 57.2407 144.577 55.454L141.257 55.614C141.15 51.9607 141.03 49.094 140.897 47.014C140.79 44.934 140.63 42.974 140.417 41.134C140.284 39.9074 140.084 38.9874 139.817 38.374C139.577 37.7607 139.23 37.3074 138.777 37.014C140.004 36.0274 141.484 35.534 143.217 35.534C144.417 35.534 145.35 35.7474 146.017 36.174C146.71 36.574 147.204 37.174 147.497 37.974C147.79 38.7474 147.99 39.8007 148.097 41.134C148.15 42.2007 148.177 43.294 148.177 44.414V46.574L148.137 52.094C149.577 50.2274 150.737 48.174 151.617 45.934C152.497 43.6674 152.937 41.454 152.937 39.294C152.937 38.3874 152.844 37.6274 152.657 37.014C153.564 36.0274 154.764 35.534 156.257 35.534C157.297 35.534 158.15 35.8007 158.817 36.334C159.484 36.8674 159.817 37.7207 159.817 38.894C159.817 40.3074 159.31 41.9474 158.297 43.814C157.31 45.654 156.11 47.454 154.697 49.214C153.284 50.9474 151.937 52.4407 150.657 53.694C149.51 54.814 148.684 55.7474 148.177 56.494C147.67 57.2407 147.417 58.174 147.417 59.294C147.417 59.9607 147.59 60.614 147.937 61.254C148.31 61.9207 148.777 62.4674 149.337 62.894C148.697 63.5074 147.924 63.9607 147.017 64.254C146.137 64.574 145.217 64.734 144.257 64.734C143.084 64.734 142.15 64.4274 141.457 63.814C140.79 63.2274 140.457 62.3607 140.457 61.214Z" fill="white"/>
</svg>
