<svg width="1208" height="1208" viewBox="0 0 1208 1208" fill="none" xmlns="http://www.w3.org/2000/svg">
<g filter="url(#filter0_d_6_15)">
<rect x="4" width="1200" height="1200" rx="10" fill="#FF7A00"/>
</g>
<path fill-rule="evenodd" clip-rule="evenodd" d="M429.332 336C402.53 336 377.693 351.079 363.904 375.723L314.458 464.092C303.328 483.984 299.105 511.241 311.737 535.64C318.881 549.438 331.214 569.231 349.664 584.741V854.182C349.664 899.37 383.825 936 425.965 936H502.266C530.359 936 553.133 911.58 553.133 881.455V717.818H654.867V881.455C654.867 911.58 677.641 936 705.735 936H782.036C824.177 936 858.336 899.37 858.336 854.182V584.741C876.786 569.231 889.119 549.438 896.263 535.64C908.896 511.24 904.671 483.984 893.542 464.092L844.096 375.723C830.306 351.079 805.47 336 778.668 336H429.332ZM807.469 607.901C803.377 608.441 799.14 608.727 794.752 608.727C759.804 608.727 734.032 590.225 716.834 570.677C712.429 565.666 708.487 560.487 704.984 555.361C685.812 581.131 653.703 608.727 604 608.727C554.298 608.727 522.188 581.131 503.016 555.361C499.514 560.487 495.572 565.666 491.165 570.677C473.968 590.225 448.195 608.727 413.248 608.727C408.861 608.727 404.623 608.441 400.531 607.901V854.182C400.531 869.245 411.918 881.455 425.965 881.455H502.266V717.818C502.266 687.693 525.04 663.273 553.133 663.273H654.867C682.961 663.273 705.735 687.693 705.735 717.818V881.455H782.036C796.083 881.455 807.469 869.245 807.469 854.182V607.901ZM407.523 403.786C412.119 395.572 420.398 390.545 429.332 390.545H778.668C787.603 390.545 795.882 395.572 800.478 403.786L849.923 492.156C854.074 499.572 853.573 505.721 851.79 509.165C840.154 531.64 821.44 554.182 794.752 554.182C778.088 554.182 764.817 545.729 753.837 533.249C742.629 520.507 735.388 505.198 731.891 496.472C726.372 482.714 714.202 478.197 705.819 478.159C697.443 478.121 685.342 482.501 679.67 496.045C671.913 514.569 649.735 554.182 604 554.182C558.265 554.182 536.087 514.569 528.33 496.045C522.659 482.501 510.556 478.121 502.181 478.159C493.798 478.197 481.627 482.714 476.111 496.472C472.612 505.198 465.372 520.507 454.163 533.249C443.184 545.729 429.913 554.182 413.248 554.182C386.559 554.182 367.847 531.64 356.21 509.165C354.428 505.721 353.926 499.572 358.076 492.156L407.523 403.786Z" fill="#F5F5F5"/>
<defs>
<filter id="filter0_d_6_15" x="0" y="0" width="1208" height="1208" filterUnits="userSpaceOnUse" color-interpolation-filters="sRGB">
<feFlood flood-opacity="0" result="BackgroundImageFix"/>
<feColorMatrix in="SourceAlpha" type="matrix" values="0 0 0 0 0 0 0 0 0 0 0 0 0 0 0 0 0 0 127 0" result="hardAlpha"/>
<feOffset dy="4"/>
<feGaussianBlur stdDeviation="2"/>
<feComposite in2="hardAlpha" operator="out"/>
<feColorMatrix type="matrix" values="0 0 0 0 0 0 0 0 0 0 0 0 0 0 0 0 0 0 0.25 0"/>
<feBlend mode="normal" in2="BackgroundImageFix" result="effect1_dropShadow_6_15"/>
<feBlend mode="normal" in="SourceGraphic" in2="effect1_dropShadow_6_15" result="shape"/>
</filter>
</defs>
</svg>
