<svg width="1200" height="630" viewBox="0 0 1200 630" fill="none" xmlns="http://www.w3.org/2000/svg">
<rect width="1200" height="630" rx="5" fill="#FF7A00"/>
<path d="M388.6 212.8C388.6 231.133 379.946 240.3 362.64 240.3C353.986 240.3 345.48 238.32 337.12 234.36L330.3 272.86H369.46C369.46 280.633 367.553 286.72 363.74 291.12C359.926 295.373 354.28 297.5 346.8 297.5C342.4 297.5 338.073 296.84 333.82 295.52C329.566 294.2 327.073 293.173 326.34 292.44L319.08 331.6H338.66C348.486 331.6 355.746 330.867 360.44 329.4C361.466 330.72 362.2 332.553 362.64 334.9C363.226 337.247 363.52 339.447 363.52 341.5C363.52 352.5 354.426 358 336.24 358H266.94L294 212.8H388.6ZM489.38 325.22C488.647 329.18 488.28 332.26 488.28 334.46C488.28 337.54 489.16 340.18 490.92 342.38C492.68 344.58 495.247 345.827 498.62 346.12C497.007 351.4 493.487 355.433 488.06 358.22C482.634 361.007 476.84 362.4 470.68 362.4C465.547 362.4 460.927 361.3 456.82 359.1C452.86 357.047 450.147 353.967 448.68 349.86C445.014 353.82 440.174 356.9 434.16 359.1C428.294 361.3 421.84 362.4 414.8 362.4C402.334 362.4 393.314 358.733 387.74 351.4C382.314 344.067 379.6 333.287 379.6 319.06C379.6 304.247 382.314 290.973 387.74 279.24C393.167 267.507 401.014 258.267 411.28 251.52C421.694 244.773 434.087 241.4 448.46 241.4C453.887 241.4 458.58 241.913 462.54 242.94L469.58 204L513.14 199.6L489.38 325.22ZM459.02 258.56C457.554 257.24 455.72 256.287 453.52 255.7C451.32 254.967 449.267 254.6 447.36 254.6C443.4 254.6 439.954 256.14 437.02 259.22C434.234 262.3 431.74 267.507 429.54 274.84C427.34 282.027 425.287 292 423.38 304.76C421.62 316.787 420.74 326.687 420.74 334.46C420.74 339.007 421.254 342.453 422.28 344.8C423.454 347.147 425.727 348.32 429.1 348.32C434.38 348.32 438.487 345.607 441.42 340.18C444.5 334.607 446.7 328.153 448.02 320.82L459.02 258.56ZM623.279 325.22C622.546 329.18 622.179 332.26 622.179 334.46C622.179 337.54 623.059 340.18 624.819 342.38C626.579 344.58 629.146 345.827 632.519 346.12C630.906 351.4 627.386 355.433 621.959 358.22C616.533 361.007 610.739 362.4 604.579 362.4C599.446 362.4 594.826 361.3 590.719 359.1C586.759 357.047 584.046 353.967 582.579 349.86C574.366 358.22 562.559 362.4 547.159 362.4C536.599 362.4 528.386 360.347 522.519 356.24C516.799 351.987 513.939 344.873 513.939 334.9C513.939 328.887 514.746 321.333 516.359 312.24C517.973 303.147 518.926 297.867 519.219 296.4L528.459 245.8L572.679 241.4L560.139 302.12C558.379 310.333 557.059 317.153 556.179 322.58C555.446 327.86 555.079 332.627 555.079 336.88C555.079 340.4 555.593 343.187 556.619 345.24C557.646 347.293 559.773 348.32 562.999 348.32C568.279 348.32 572.386 345.607 575.319 340.18C578.399 334.607 580.599 328.153 581.919 320.82L595.119 245.8L639.119 241.4L623.279 325.22ZM766.362 212.8C766.362 222.333 764.382 229.52 760.422 234.36C756.609 239.053 750.155 241.4 741.062 241.4C736.222 241.4 731.015 240.813 725.442 239.64C719.869 238.467 715.395 237.073 712.022 235.46L705.422 271.1H747.882C747.882 279.167 745.975 285.62 742.162 290.46C738.349 295.153 732.262 297.5 723.902 297.5C719.649 297.5 715.469 296.913 711.362 295.74C707.255 294.567 703.882 293.393 701.242 292.22L689.582 358H641.842L668.902 212.8H766.362ZM802.61 325.22C801.877 329.18 801.51 332.26 801.51 334.46C801.51 337.54 802.39 340.18 804.15 342.38C805.91 344.58 808.477 345.827 811.85 346.12C810.237 351.4 806.717 355.433 801.29 358.22C795.864 361.007 789.924 362.4 783.47 362.4C775.844 362.4 769.684 360.493 764.99 356.68C760.444 352.72 758.17 347.073 758.17 339.74C758.17 332.553 760.59 317.08 765.43 293.32L766.31 288.92L782.37 204L826.81 199.6L802.61 325.22ZM834.002 382.64C834.002 371.347 841.555 360.787 856.662 350.96L838.402 351.84C837.815 331.747 837.155 315.98 836.422 304.54C835.835 293.1 834.955 282.32 833.782 272.2C833.048 265.453 831.948 260.393 830.482 257.02C829.162 253.647 827.255 251.153 824.762 249.54C831.508 244.113 839.648 241.4 849.182 241.4C855.782 241.4 860.915 242.573 864.582 244.92C868.395 247.12 871.108 250.42 872.722 254.82C874.335 259.073 875.435 264.867 876.022 272.2C876.315 278.067 876.462 284.08 876.462 290.24V302.12L876.242 332.48C884.162 322.213 890.542 310.92 895.382 298.6C900.222 286.133 902.642 273.96 902.642 262.08C902.642 257.093 902.128 252.913 901.102 249.54C906.088 244.113 912.688 241.4 920.902 241.4C926.622 241.4 931.315 242.867 934.982 245.8C938.648 248.733 940.482 253.427 940.482 259.88C940.482 267.653 937.695 276.673 932.122 286.94C926.695 297.06 920.095 306.96 912.322 316.64C904.548 326.173 897.142 334.387 890.102 341.28C883.795 347.44 879.248 352.573 876.462 356.68C873.675 360.787 872.282 365.92 872.282 372.08C872.282 375.747 873.235 379.34 875.142 382.86C877.195 386.527 879.762 389.533 882.842 391.88C879.322 395.253 875.068 397.747 870.082 399.36C865.242 401.12 860.182 402 854.902 402C848.448 402 843.315 400.313 839.502 396.94C835.835 393.713 834.002 388.947 834.002 382.64Z" fill="white"/>
</svg>
