<svg id="visual" viewBox="0 0 900 600" width="900" height="600" xmlns="http://www.w3.org/2000/svg" xmlns:xlink="http://www.w3.org/1999/xlink" version="1.1"><rect x="0" y="0" width="900" height="600" fill="#001220"></rect><defs><linearGradient id="grad1_0" x1="33.3%" y1="0%" x2="100%" y2="100%"><stop offset="20%" stop-color="#001220" stop-opacity="1"></stop><stop offset="80%" stop-color="#001220" stop-opacity="1"></stop></linearGradient></defs><defs><linearGradient id="grad2_0" x1="0%" y1="0%" x2="66.7%" y2="100%"><stop offset="20%" stop-color="#001220" stop-opacity="1"></stop><stop offset="80%" stop-color="#001220" stop-opacity="1"></stop></linearGradient></defs><g transform="translate(900, 0)"><path d="M0 486.7C-45.1 438.2 -90.2 389.6 -155 374.2C-219.8 358.8 -304.4 376.5 -344.2 344.2C-384 311.9 -379.1 229.5 -395.4 163.8C-411.7 98.1 -449.2 49 -486.7 0L0 0Z" fill="#F7770F"></path></g><g transform="translate(0, 600)"><path d="M0 -486.7C60.2 -469.6 120.4 -452.4 177.9 -429.6C235.5 -406.9 290.3 -378.5 338 -338C385.7 -297.4 426.1 -244.6 449.7 -186.3C473.3 -127.9 480 -63.9 486.7 0L0 0Z" fill="#F7770F"></path></g></svg>